PathFileType	4	(X/Y/Z)	Kaydara																																																																																																																																																																																																																												
DataRate	CameraRate	NumFrames	NumMarkers	Units	OrigDataRate	OrigDataStartFrame	OrigNumFrames																																																																																																																																																																																																																								
60	60	4	74	mm	60	1515	294																																																																																																																																																																																																																								
Frame#	Time	N_lasi			N_rasi			N_rpsi			N_lpsi			N_fneck			N_bneck			N_fhead			N_rhead			N_lhead			N_rshld			N_relbtop			N_relbext			N_relblow			N_rwrext			N_rwrtop			N_rwrlow			N_lshld			N_lelblow			N_lelbtop			N_lwrext			N_lwrtop			N_lwrlow			N_rtopleg			N_ltopleg			N_rkneefr			N_rkneebk			N_rkneeis			N_lkneefr			N_lknssbk			N_lkneeis			N_rankfr			N_rankis			N_rankbk			N_lankfr			N_lankbk			N_lankis			D_lasi			D_rasi			D_lpsi			D_fneck			D_bneck			D_fhead			D_rhead			D_lhead			D_rshld			D_relbtop			D_relbext			D_relblow			D_rwrext			D_rwrtop			D_rwrlow			D_lshld			D_lelbext			D_lelblow			D_lelbtop			D_lwrext			D_lwrtop			D_lwrlow			D_rtopleg			D_ltopleg			D_rkneefr			D_rkneebk			D_rkneeis			D_lkneefr			D_lknssbk			D_lkneeis			D_rankfr			D_rankis			D_rankbk			D_lankfr			D_lankbk			D_lankis			D_rpsi			N_lelbext		
		X1	Y1	Z1	X2	Y2	Z2	X3	Y3	Z3	X4	Y4	Z4	X5	Y5	Z5	X6	Y6	Z6	X7	Y7	Z7	X8	Y8	Z8	X9	Y9	Z9	X10	Y10	Z10	X11	Y11	Z11	X12	Y12	Z12	X13	Y13	Z13	X14	Y14	Z14	X15	Y15	Z15	X16	Y16	Z16	X17	Y17	Z17	X18	Y18	Z18	X19	Y19	Z19	X20	Y20	Z20	X21	Y21	Z21	X22	Y22	Z22	X23	Y23	Z23	X24	Y24	Z24	X25	Y25	Z25	X26	Y26	Z26	X27	Y27	Z27	X28	Y28	Z28	X29	Y29	Z29	X30	Y30	Z30	X31	Y31	Z31	X32	Y32	Z32	X33	Y33	Z33	X34	Y34	Z34	X35	Y35	Z35	X36	Y36	Z36	X37	Y37	Z37	X38	Y38	Z38	X39	Y39	Z39	X40	Y40	Z40	X41	Y41	Z41	X42	Y42	Z42	X43	Y43	Z43	X44	Y44	Z44	X45	Y45	Z45	X46	Y46	Z46	X47	Y47	Z47	X48	Y48	Z48	X49	Y49	Z49	X50	Y50	Z50	X51	Y51	Z51	X52	Y52	Z52	X53	Y53	Z53	X54	Y54	Z54	X55	Y55	Z55	X56	Y56	Z56	X57	Y57	Z57	X58	Y58	Z58	X59	Y59	Z59	X60	Y60	Z60	X61	Y61	Z61	X62	Y62	Z62	X63	Y63	Z63	X64	Y64	Z64	X65	Y65	Z65	X66	Y66	Z66	X67	Y67	Z67	X68	Y68	Z68	X69	Y69	Z69	X70	Y70	Z70	X71	Y71	Z71	X72	Y72	Z72	X73	Y73	Z73	X74	Y74	Z74
																																																																																																																																																																																																																															
258	25.233	-531.12682	1238.38287	-84.03777	-506.16619	1247.50526	-313.47578	-222.37673	1219.00017	-351.13171	-273.16263	1221.84746	-3.79726	-376.63937	1609.84436	-177.70657	-237.9521	1665.85709	-190.53528	-439.2424	1801.23001	-193.33935	-246.76702	1773.91785	-252.10455	-296.13556	1777.87476	-103.77629	-268.63169	1533.56979	-441.07323	-214.93494	1227.10678	-471.08742	-279.92989	1139.63394	-458.58635	-305.39682	1227.71935	-474.4315	-247.12252	905.40573	-502.73651	-294.10589	898.21892	-509.5396	-317.85881	911.5403	-470.29903	-258.83585	1607.0517	17.0362	-276.48512	1583.34396	271.81545	-294.09706	1502.08847	301.55188	-390.23003	1820.57343	382.75196	-349.54212	1835.04074	402.73132	-319.16161	1829.38629	357.11185	-406.55277	1045.3035	-442.84531	-372.11514	1015.23888	45.92495	-428.99826	562.54963	-260.40712	-322.33234	578.53531	-328.01861	-366.96072	564.99004	-167.13943	-380.25326	539.65313	-101.75273	-254.33426	555.86323	-41.25906	-254.9255	547.23125	-191.02411	-296.43843	139.29975	-270.96285	-298.45079	154.07907	-191.1207	-216.58186	141.33883	-216.07704	-332.22294	192.95887	-119.30576	-259.21034	185.55325	-76.30143	-295.21034	164.55325	-160.30143	-464.48223	1035.83008	1742.7504	-430.83511	1055.06706	1456.47781	-269.58429	1134.18701	1744.25278	-422.64996	1564.96628	1598.96225	-284.51342	1595.09155	1605.87128	-466.29696	1773.75107	1601.74042	-303.1852	1734.80621	1525.18402	-311.77391	1732.25876	1680.07111	-328.15708	1552.46185	1449.49127	-314.55935	1419.60983	1179.59007	-391.492	1430.08087	1183.0645	-308.0813	1505.77103	1173.96416	-316.18319	1434.245	923.77228	-342.19006	1484.76593	925.09476	-388.48644	1455.13672	932.88681	-341.72237	1557.68265	1788.63876	-408.70346	1463.69873	2053.19443	-317.63067	1519.63745	2043.48801	-331.21864	1441.42181	2054.69177	-339.44538	1493.573	2303.70712	-368.94211	1525.32516	2298.76572	-411.8417	1499.62891	2290.67917	-337.19105	1004.74899	1408.72925	-322.39475	1010.77751	1809.64005	-372.88342	455.55027	1450.90698	-273.18546	491.39828	1422.5824	-280.12489	458.63537	1543.2373	-355.80151	448.81561	1770.78964	-243.26065	486.46046	1786.75888	-314.81718	444.36592	1679.2366	-323.81325	130.70749	1417.89291	-294.76278	126.80779	1482.31308	-243.54254	128.03722	1417.9155	-323.31924	135.40133	1792.21924	-250.62239	125.01841	1806.57318	-293.832	124.49876	1733.06473	-244.58736	1150.67192	1526.21887	-367.62844	1544.88693	275.1915
259	25.25	-530.82756	1238.31665	-83.88592	-505.95932	1247.5589	-313.28255	-222.04794	1219.15573	-350.76759	-272.94369	1221.89026	-3.71256	-376.55987	1610.03845	-177.52911	-237.8726	1666.05118	-190.35782	-439.48257	1801.02875	-193.29144	-246.85114	1774.11728	-251.95374	-296.07435	1778.18222	-103.92283	-268.24907	1533.69522	-440.94944	-215.52372	1227.49626	-472.12788	-280.38618	1140.16975	-459.86408	-306.03682	1228.50853	-476.04961	-248.2605	906.25534	-506.29616	-295.18438	899.18198	-512.96589	-318.8476	912.05933	-473.69144	-258.66503	1607.30621	17.24494	-276.50953	1583.4021	272.04767	-294.12533	1502.1492	301.69107	-390.25723	1820.57709	383.33805	-349.51164	1835.00992	403.35915	-319.20637	1829.45023	357.72327	-406.44787	1045.44106	-442.71149	-372.03117	1015.21591	46.01927	-428.95908	562.58011	-260.37626	-322.2855	578.5638	-327.98069	-366.89083	564.99432	-167.1277	-380.22251	539.6907	-101.69628	-254.27876	555.85419	-41.22384	-254.87339	547.22198	-190.99642	-296.43728	139.30943	-270.95911	-298.44454	154.07707	-191.13655	-216.58594	141.33153	-216.03868	-332.21203	192.95933	-119.31038	-259.26029	185.52034	-76.28433	-295.26029	164.52034	-160.28433	-464.32819	1035.86388	1742.87704	-430.5711	1055.22652	1456.70212	-269.34135	1134.15382	1744.29337	-422.49523	1564.96567	1599.2746	-284.35799	1595.21408	1606.14655	-466.20266	1773.71567	1601.84906	-303.21037	1734.61502	1525.82443	-311.65974	1732.27463	1680.39505	-328.13118	1552.50809	1449.70764	-314.64838	1419.62036	1179.7966	-391.57047	1430.08881	1183.40614	-308.13354	1505.78888	1174.03549	-316.69901	1434.3663	923.96729	-342.49344	1484.92691	925.15488	-388.92956	1455.44266	933.13988	-341.56509	1557.58087	1788.79471	-408.75278	1463.53378	2053.28506	-317.76342	1519.63913	2043.56888	-331.171	1441.40427	2054.8851	-340.10841	1493.9743	2304.07578	-369.52675	1525.59982	2298.77686	-412.68826	1499.86618	2290.63416	-337.00188	1004.7995	1408.74832	-322.14409	1010.68985	1809.58588	-372.85858	455.55836	1450.91232	-273.18373	491.38981	1422.62985	-280.07326	458.6554	1543.349	-355.71224	448.82767	1770.80093	-243.13705	486.45653	1786.82709	-314.73246	444.36893	1679.25217	-323.82084	130.72618	1417.90558	-294.73185	126.86131	1482.36969	-243.54553	128.02343	1417.94022	-323.25813	135.38374	1792.276	-250.57232	125.01937	1806.61758	-293.8196	124.48506	1733.04977	-244.25228	1150.69702	1526.26801	-367.64664	1544.92172	275.30386
260	25.267	-530.49934	1238.246	-83.78792	-505.67963	1247.60147	-313.09607	-221.69254	1219.29825	-350.41878	-272.74673	1221.90979	-3.61299	-376.58424	1610.07782	-177.31585	-237.89696	1666.09039	-190.14454	-439.62578	1800.84869	-193.28871	-246.94866	1774.21585	-251.84406	-296.68268	1778.01682	-103.47384	-267.89984	1533.82355	-440.82817	-216.52658	1227.96799	-473.55068	-281.21628	1140.91049	-461.54572	-307.01029	1229.62563	-478.09334	-249.87053	907.24022	-511.15875	-297.13568	900.30785	-517.41749	-319.99592	912.69241	-477.17037	-258.84457	1607.29614	17.46511	-276.48916	1583.41766	272.36475	-294.05313	1502.19131	301.8605	-390.37285	1820.55679	383.77464	-349.56169	1835.00519	403.88	-319.18085	1829.52316	358.26256	-406.2339	1045.54642	-442.55535	-371.74828	1015.09842	46.06928	-428.93852	562.60517	-260.32888	-322.24117	578.56743	-327.91279	-366.85013	565.02949	-167.05702	-380.16186	539.70451	-101.6596	-254.25489	555.83111	-41.15829	-254.85462	547.18586	-190.92075	-296.43768	139.30748	-270.95459	-298.44294	154.07661	-191.14117	-216.5913	141.32036	-216.03634	-332.19063	192.94918	-119.30685	-259.23527	185.50259	-76.28718	-295.23527	164.50259	-160.28718	-464.02962	1035.77049	1742.91107	-430.25429	1055.35851	1456.83945	-269.11657	1134.14658	1744.3277	-422.31869	1564.98764	1599.60907	-284.14089	1595.28275	1606.57486	-466.11561	1773.71307	1601.9986	-302.95908	1734.83261	1524.41254	-311.60294	1732.29263	1680.53848	-328.06953	1552.54181	1449.86176	-314.70047	1419.54483	1180.09178	-391.60767	1429.98993	1183.71841	-308.18222	1505.72647	1174.17099	-317.03161	1434.21631	924.1581	-342.86106	1484.83734	925.43655	-389.2057	1455.40726	933.35983	-341.44478	1557.43958	1788.93738	-408.73241	1463.25226	2053.37357	-317.89341	1519.53278	2043.81775	-331.07079	1441.3295	2055.19623	-340.56683	1494.12384	2304.38919	-370.01236	1525.6192	2298.86627	-413.14484	1499.83429	2290.7576	-336.78654	1004.83665	1408.72772	-321.92287	1010.63187	1809.59564	-372.81689	455.57758	1450.9024	-273.14514	491.38741	1422.62802	-280.06897	458.64201	1543.30139	-355.65407	448.83472	1770.77728	-243.03448	486.42136	1786.90964	-314.64579	444.366	1679.28284	-323.79147	130.70979	1417.91656	-294.7471	126.81437	1482.34375	-243.52962	128.03368	1417.92999	-323.24615	135.38564	1792.26547	-250.56305	125.0069	1806.61514	-293.79751	124.4696	1733.04749	-243.90368	1150.67566	1526.31363	-367.62951	1544.89716	275.52073
261	25.283	-530.20096	1238.17833	-83.67901	-505.37773	1247.64595	-312.92198	-222.37823	1219.49554	-350.17921	-272.59447	1221.93695	-3.48233	-376.52645	1610.13794	-177.14556	-237.83918	1666.15051	-189.97425	-439.80991	1800.64804	-193.25495	-247.10835	1774.33884	-251.52739	-296.87752	1778.09769	-103.28901	-267.57349	1533.95432	-440.71442	-217.7319	1228.63365	-475.71945	-282.37858	1141.7939	-463.63426	-308.44574	1230.83374	-480.20481	-252.17142	908.5334	-517.22961	-299.45454	901.64177	-522.19429	-321.28586	913.32077	-481.09413	-258.81737	1607.51755	17.68038	-276.47434	1583.44055	272.57627	-293.99324	1502.19315	302.03701	-390.30674	1820.48737	384.0604	-349.63203	1834.94751	404.17534	-319.12624	1829.50287	358.56808	-405.92945	1045.62065	-442.4033	-371.62415	1015.07545	46.20786	-428.88264	562.62562	-260.26564	-322.16827	578.56487	-327.82509	-366.79337	565.02819	-167.00029	-380.05642	539.70558	-101.55708	-254.17498	555.79792	-41.1118	-254.82063	547.15866	-190.81785	-296.41327	139.30766	-270.94664	-298.42356	154.06979	-191.09753	-216.55779	141.29285	-216.02631	-332.18021	192.92746	-119.2815	-259.24204	185.48157	-76.2429	-295.24204	164.48157	-160.2429	-464.11789	1035.99037	1743.04916	-429.96971	1055.47981	1456.90796	-268.92065	1134.10225	1744.28223	-422.17377	1564.96857	1599.76212	-283.97036	1595.38223	1606.93436	-466.05442	1773.7001	1602.15378	-302.86755	1734.87213	1524.46091	-311.51062	1732.34253	1680.8374	-327.98492	1552.55875	1450.03586	-314.6558	1419.35867	1180.33234	-391.62884	1429.73389	1183.89809	-308.25462	1505.53146	1174.34998	-317.20459	1433.78082	924.37782	-343.09952	1484.44244	925.70282	-389.27017	1454.98276	933.59024	-341.33575	1557.37503	1789.14154	-408.64204	1462.87048	2053.50403	-317.96459	1519.45862	2044.16275	-331.01959	1441.10703	2055.14923	-341.03115	1494.17145	2304.66995	-370.6176	1525.58731	2299.03397	-413.35037	1499.70703	2290.87982	-336.50101	1004.89204	1408.69171	-321.5826	1010.56152	1809.55399	-372.81185	455.58544	1450.9137	-273.11749	491.3641	1422.65137	-280.08749	458.62988	1543.27194	-355.54718	448.85933	1770.75623	-242.94271	486.42643	1786.92719	-314.56997	444.35371	1679.26437	-323.78872	130.70251	1417.92145	-294.74632	126.81582	1482.34512	-243.52566	127.99371	1417.9184	-323.24551	135.38225	1792.26898	-250.53656	124.9558	1806.57883	-293.75467	124.46345	1733.06885	-243.53014	1150.6945	1526.36459	-367.62798	1544.81476	275.77852
